<mxfile host="app.diagrams.net" modified="2023-08-11T14:30:29.663Z" agent="Mozilla/5.0 (Windows NT 10.0; Win64; x64) AppleWebKit/537.36 (KHTML, like Gecko) Chrome/115.0.0.0 Safari/537.36" etag="v18iwAziHGqyfIH4kfiW" version="21.6.8" type="device">
  <diagram name="Página-1" id="h6HY0jYTpzdiz0663PsW">
    <mxGraphModel dx="1434" dy="768" grid="1" gridSize="10" guides="1" tooltips="1" connect="1" arrows="1" fold="1" page="1" pageScale="1" pageWidth="827" pageHeight="1169" math="0" shadow="0">
      <root>
        <mxCell id="0" />
        <mxCell id="1" parent="0" />
        <mxCell id="0HKYhWC0ovhim3nkVOuH-25" style="rounded=0;orthogonalLoop=1;jettySize=auto;html=1;exitX=0.5;exitY=1;exitDx=0;exitDy=0;entryX=0;entryY=0;entryDx=0;entryDy=0;endArrow=none;endFill=0;" edge="1" parent="1" source="0HKYhWC0ovhim3nkVOuH-1" target="0HKYhWC0ovhim3nkVOuH-24">
          <mxGeometry relative="1" as="geometry" />
        </mxCell>
        <mxCell id="0HKYhWC0ovhim3nkVOuH-29" style="rounded=0;orthogonalLoop=1;jettySize=auto;html=1;exitX=1;exitY=0.5;exitDx=0;exitDy=0;entryX=0;entryY=0.5;entryDx=0;entryDy=0;endArrow=none;endFill=0;" edge="1" parent="1" source="0HKYhWC0ovhim3nkVOuH-1" target="0HKYhWC0ovhim3nkVOuH-28">
          <mxGeometry relative="1" as="geometry" />
        </mxCell>
        <mxCell id="0HKYhWC0ovhim3nkVOuH-33" style="rounded=0;orthogonalLoop=1;jettySize=auto;html=1;exitX=1;exitY=0;exitDx=0;exitDy=0;entryX=0.5;entryY=1;entryDx=0;entryDy=0;endArrow=none;endFill=0;" edge="1" parent="1" source="0HKYhWC0ovhim3nkVOuH-1" target="0HKYhWC0ovhim3nkVOuH-32">
          <mxGeometry relative="1" as="geometry" />
        </mxCell>
        <mxCell id="0HKYhWC0ovhim3nkVOuH-1" value="Cliente" style="rounded=0;whiteSpace=wrap;html=1;" vertex="1" parent="1">
          <mxGeometry x="60" y="310" width="120" height="60" as="geometry" />
        </mxCell>
        <mxCell id="0HKYhWC0ovhim3nkVOuH-38" style="rounded=0;orthogonalLoop=1;jettySize=auto;html=1;exitX=0.5;exitY=1;exitDx=0;exitDy=0;entryX=0.5;entryY=0;entryDx=0;entryDy=0;endArrow=classic;endFill=1;startArrow=none;startFill=0;" edge="1" parent="1" source="0HKYhWC0ovhim3nkVOuH-2" target="0HKYhWC0ovhim3nkVOuH-37">
          <mxGeometry relative="1" as="geometry" />
        </mxCell>
        <mxCell id="0HKYhWC0ovhim3nkVOuH-42" style="edgeStyle=orthogonalEdgeStyle;rounded=0;orthogonalLoop=1;jettySize=auto;html=1;exitX=1;exitY=0.5;exitDx=0;exitDy=0;entryX=0.088;entryY=0.575;entryDx=0;entryDy=0;entryPerimeter=0;" edge="1" parent="1" source="0HKYhWC0ovhim3nkVOuH-2" target="0HKYhWC0ovhim3nkVOuH-41">
          <mxGeometry relative="1" as="geometry" />
        </mxCell>
        <mxCell id="0HKYhWC0ovhim3nkVOuH-2" value="pedido" style="rounded=0;whiteSpace=wrap;html=1;" vertex="1" parent="1">
          <mxGeometry x="310" y="310" width="120" height="60" as="geometry" />
        </mxCell>
        <mxCell id="0HKYhWC0ovhim3nkVOuH-19" style="rounded=0;orthogonalLoop=1;jettySize=auto;html=1;exitX=0.75;exitY=1;exitDx=0;exitDy=0;entryX=0;entryY=0.5;entryDx=0;entryDy=0;endArrow=none;endFill=0;" edge="1" parent="1" source="0HKYhWC0ovhim3nkVOuH-3" target="0HKYhWC0ovhim3nkVOuH-18">
          <mxGeometry relative="1" as="geometry" />
        </mxCell>
        <mxCell id="0HKYhWC0ovhim3nkVOuH-3" value="livro" style="rounded=0;whiteSpace=wrap;html=1;" vertex="1" parent="1">
          <mxGeometry x="550" y="310" width="120" height="60" as="geometry" />
        </mxCell>
        <mxCell id="0HKYhWC0ovhim3nkVOuH-5" style="rounded=0;orthogonalLoop=1;jettySize=auto;html=1;exitX=0.5;exitY=1;exitDx=0;exitDy=0;entryX=0.5;entryY=0;entryDx=0;entryDy=0;endArrow=none;endFill=0;" edge="1" parent="1" source="0HKYhWC0ovhim3nkVOuH-4" target="0HKYhWC0ovhim3nkVOuH-3">
          <mxGeometry relative="1" as="geometry" />
        </mxCell>
        <mxCell id="0HKYhWC0ovhim3nkVOuH-4" value="&lt;u&gt;ISBN&lt;/u&gt;" style="ellipse;whiteSpace=wrap;html=1;" vertex="1" parent="1">
          <mxGeometry x="530" y="230" width="70" height="40" as="geometry" />
        </mxCell>
        <mxCell id="0HKYhWC0ovhim3nkVOuH-7" style="rounded=0;orthogonalLoop=1;jettySize=auto;html=1;exitX=0.5;exitY=1;exitDx=0;exitDy=0;endArrow=none;endFill=0;" edge="1" parent="1" source="0HKYhWC0ovhim3nkVOuH-6" target="0HKYhWC0ovhim3nkVOuH-3">
          <mxGeometry relative="1" as="geometry" />
        </mxCell>
        <mxCell id="0HKYhWC0ovhim3nkVOuH-6" value="autor" style="ellipse;whiteSpace=wrap;html=1;" vertex="1" parent="1">
          <mxGeometry x="630" y="230" width="70" height="40" as="geometry" />
        </mxCell>
        <mxCell id="0HKYhWC0ovhim3nkVOuH-8" value="cartao de credito" style="rounded=0;whiteSpace=wrap;html=1;" vertex="1" parent="1">
          <mxGeometry x="310" y="110" width="120" height="60" as="geometry" />
        </mxCell>
        <mxCell id="0HKYhWC0ovhim3nkVOuH-10" style="edgeStyle=orthogonalEdgeStyle;rounded=0;orthogonalLoop=1;jettySize=auto;html=1;exitX=0.5;exitY=1;exitDx=0;exitDy=0;" edge="1" parent="1" source="0HKYhWC0ovhim3nkVOuH-9" target="0HKYhWC0ovhim3nkVOuH-8">
          <mxGeometry relative="1" as="geometry" />
        </mxCell>
        <mxCell id="0HKYhWC0ovhim3nkVOuH-9" value="info cartão" style="ellipse;whiteSpace=wrap;html=1;" vertex="1" parent="1">
          <mxGeometry x="330" y="50" width="80" height="40" as="geometry" />
        </mxCell>
        <mxCell id="0HKYhWC0ovhim3nkVOuH-13" style="rounded=0;orthogonalLoop=1;jettySize=auto;html=1;exitX=0.5;exitY=1;exitDx=0;exitDy=0;entryX=0.5;entryY=0;entryDx=0;entryDy=0;endArrow=none;endFill=0;" edge="1" parent="1" source="0HKYhWC0ovhim3nkVOuH-11" target="0HKYhWC0ovhim3nkVOuH-12">
          <mxGeometry relative="1" as="geometry" />
        </mxCell>
        <mxCell id="0HKYhWC0ovhim3nkVOuH-11" value="endereco" style="rounded=0;whiteSpace=wrap;html=1;" vertex="1" parent="1">
          <mxGeometry x="320" y="500" width="120" height="60" as="geometry" />
        </mxCell>
        <mxCell id="0HKYhWC0ovhim3nkVOuH-12" value="info endereco" style="ellipse;whiteSpace=wrap;html=1;" vertex="1" parent="1">
          <mxGeometry x="330" y="610" width="100" height="40" as="geometry" />
        </mxCell>
        <mxCell id="0HKYhWC0ovhim3nkVOuH-17" style="rounded=0;orthogonalLoop=1;jettySize=auto;html=1;exitX=0;exitY=1;exitDx=0;exitDy=0;entryX=1;entryY=0.25;entryDx=0;entryDy=0;endArrow=none;endFill=0;" edge="1" parent="1" source="0HKYhWC0ovhim3nkVOuH-14" target="0HKYhWC0ovhim3nkVOuH-3">
          <mxGeometry relative="1" as="geometry" />
        </mxCell>
        <mxCell id="0HKYhWC0ovhim3nkVOuH-14" value="preco aquisicao" style="ellipse;whiteSpace=wrap;html=1;" vertex="1" parent="1">
          <mxGeometry x="720" y="250" width="70" height="40" as="geometry" />
        </mxCell>
        <mxCell id="0HKYhWC0ovhim3nkVOuH-16" style="rounded=0;orthogonalLoop=1;jettySize=auto;html=1;exitX=0;exitY=0.5;exitDx=0;exitDy=0;endArrow=none;endFill=0;" edge="1" parent="1" source="0HKYhWC0ovhim3nkVOuH-15" target="0HKYhWC0ovhim3nkVOuH-3">
          <mxGeometry relative="1" as="geometry" />
        </mxCell>
        <mxCell id="0HKYhWC0ovhim3nkVOuH-15" value="preco venda" style="ellipse;whiteSpace=wrap;html=1;" vertex="1" parent="1">
          <mxGeometry x="730" y="320" width="70" height="40" as="geometry" />
        </mxCell>
        <mxCell id="0HKYhWC0ovhim3nkVOuH-18" value="ano" style="ellipse;whiteSpace=wrap;html=1;" vertex="1" parent="1">
          <mxGeometry x="700" y="400" width="70" height="40" as="geometry" />
        </mxCell>
        <mxCell id="0HKYhWC0ovhim3nkVOuH-22" style="rounded=0;orthogonalLoop=1;jettySize=auto;html=1;exitX=0.5;exitY=1;exitDx=0;exitDy=0;entryX=0.25;entryY=0;entryDx=0;entryDy=0;" edge="1" parent="1" source="0HKYhWC0ovhim3nkVOuH-20" target="0HKYhWC0ovhim3nkVOuH-1">
          <mxGeometry relative="1" as="geometry" />
        </mxCell>
        <mxCell id="0HKYhWC0ovhim3nkVOuH-20" value="&lt;u&gt;id&lt;/u&gt;" style="ellipse;whiteSpace=wrap;html=1;" vertex="1" parent="1">
          <mxGeometry y="230" width="80" height="40" as="geometry" />
        </mxCell>
        <mxCell id="0HKYhWC0ovhim3nkVOuH-23" style="rounded=0;orthogonalLoop=1;jettySize=auto;html=1;exitX=0.5;exitY=1;exitDx=0;exitDy=0;entryX=0.567;entryY=0.033;entryDx=0;entryDy=0;entryPerimeter=0;" edge="1" parent="1" source="0HKYhWC0ovhim3nkVOuH-21" target="0HKYhWC0ovhim3nkVOuH-1">
          <mxGeometry relative="1" as="geometry" />
        </mxCell>
        <mxCell id="0HKYhWC0ovhim3nkVOuH-21" value="&lt;u&gt;nome&lt;/u&gt;" style="ellipse;whiteSpace=wrap;html=1;" vertex="1" parent="1">
          <mxGeometry x="100" y="230" width="80" height="40" as="geometry" />
        </mxCell>
        <mxCell id="0HKYhWC0ovhim3nkVOuH-26" style="rounded=0;orthogonalLoop=1;jettySize=auto;html=1;exitX=1;exitY=1;exitDx=0;exitDy=0;entryX=0;entryY=0.5;entryDx=0;entryDy=0;endArrow=none;endFill=0;" edge="1" parent="1" source="0HKYhWC0ovhim3nkVOuH-24" target="0HKYhWC0ovhim3nkVOuH-11">
          <mxGeometry relative="1" as="geometry" />
        </mxCell>
        <mxCell id="0HKYhWC0ovhim3nkVOuH-24" value="tem" style="rhombus;whiteSpace=wrap;html=1;" vertex="1" parent="1">
          <mxGeometry x="160" y="390" width="80" height="80" as="geometry" />
        </mxCell>
        <mxCell id="0HKYhWC0ovhim3nkVOuH-30" style="rounded=0;orthogonalLoop=1;jettySize=auto;html=1;exitX=1;exitY=0.5;exitDx=0;exitDy=0;entryX=0;entryY=0.5;entryDx=0;entryDy=0;endArrow=none;endFill=0;" edge="1" parent="1" source="0HKYhWC0ovhim3nkVOuH-28" target="0HKYhWC0ovhim3nkVOuH-2">
          <mxGeometry relative="1" as="geometry" />
        </mxCell>
        <mxCell id="0HKYhWC0ovhim3nkVOuH-28" value="faz" style="rhombus;whiteSpace=wrap;html=1;" vertex="1" parent="1">
          <mxGeometry x="210" y="300" width="80" height="80" as="geometry" />
        </mxCell>
        <mxCell id="0HKYhWC0ovhim3nkVOuH-35" style="rounded=0;orthogonalLoop=1;jettySize=auto;html=1;exitX=0.5;exitY=0;exitDx=0;exitDy=0;endArrow=none;endFill=0;" edge="1" parent="1" source="0HKYhWC0ovhim3nkVOuH-31" target="0HKYhWC0ovhim3nkVOuH-8">
          <mxGeometry relative="1" as="geometry" />
        </mxCell>
        <mxCell id="0HKYhWC0ovhim3nkVOuH-36" style="rounded=0;orthogonalLoop=1;jettySize=auto;html=1;exitX=0.5;exitY=1;exitDx=0;exitDy=0;entryX=0.5;entryY=0;entryDx=0;entryDy=0;endArrow=none;endFill=0;startArrow=classic;startFill=1;" edge="1" parent="1" source="0HKYhWC0ovhim3nkVOuH-31" target="0HKYhWC0ovhim3nkVOuH-2">
          <mxGeometry relative="1" as="geometry" />
        </mxCell>
        <mxCell id="0HKYhWC0ovhim3nkVOuH-31" value="seleciona" style="rhombus;whiteSpace=wrap;html=1;" vertex="1" parent="1">
          <mxGeometry x="330" y="210" width="80" height="80" as="geometry" />
        </mxCell>
        <mxCell id="0HKYhWC0ovhim3nkVOuH-34" style="rounded=0;orthogonalLoop=1;jettySize=auto;html=1;exitX=1;exitY=0;exitDx=0;exitDy=0;entryX=0;entryY=0.5;entryDx=0;entryDy=0;endArrow=none;endFill=0;" edge="1" parent="1" source="0HKYhWC0ovhim3nkVOuH-32" target="0HKYhWC0ovhim3nkVOuH-8">
          <mxGeometry relative="1" as="geometry" />
        </mxCell>
        <mxCell id="0HKYhWC0ovhim3nkVOuH-32" value="tem" style="rhombus;whiteSpace=wrap;html=1;" vertex="1" parent="1">
          <mxGeometry x="180" y="130" width="80" height="80" as="geometry" />
        </mxCell>
        <mxCell id="0HKYhWC0ovhim3nkVOuH-39" style="rounded=0;orthogonalLoop=1;jettySize=auto;html=1;exitX=0.5;exitY=1;exitDx=0;exitDy=0;entryX=0.5;entryY=0;entryDx=0;entryDy=0;endArrow=none;endFill=0;" edge="1" parent="1" source="0HKYhWC0ovhim3nkVOuH-37" target="0HKYhWC0ovhim3nkVOuH-11">
          <mxGeometry relative="1" as="geometry" />
        </mxCell>
        <mxCell id="0HKYhWC0ovhim3nkVOuH-37" value="seleciona" style="rhombus;whiteSpace=wrap;html=1;" vertex="1" parent="1">
          <mxGeometry x="340" y="400" width="74" height="80" as="geometry" />
        </mxCell>
        <mxCell id="0HKYhWC0ovhim3nkVOuH-43" style="rounded=0;orthogonalLoop=1;jettySize=auto;html=1;exitX=1;exitY=0.5;exitDx=0;exitDy=0;entryX=0;entryY=0.5;entryDx=0;entryDy=0;endArrow=none;endFill=0;" edge="1" parent="1" source="0HKYhWC0ovhim3nkVOuH-41" target="0HKYhWC0ovhim3nkVOuH-3">
          <mxGeometry relative="1" as="geometry" />
        </mxCell>
        <mxCell id="0HKYhWC0ovhim3nkVOuH-41" value="escolhe" style="rhombus;whiteSpace=wrap;html=1;" vertex="1" parent="1">
          <mxGeometry x="450" y="300" width="80" height="80" as="geometry" />
        </mxCell>
        <mxCell id="0HKYhWC0ovhim3nkVOuH-47" style="rounded=0;orthogonalLoop=1;jettySize=auto;html=1;exitX=0.5;exitY=1;exitDx=0;exitDy=0;endArrow=none;endFill=0;" edge="1" parent="1" source="0HKYhWC0ovhim3nkVOuH-46" target="0HKYhWC0ovhim3nkVOuH-41">
          <mxGeometry relative="1" as="geometry" />
        </mxCell>
        <mxCell id="0HKYhWC0ovhim3nkVOuH-46" value="quantidade" style="ellipse;whiteSpace=wrap;html=1;" vertex="1" parent="1">
          <mxGeometry x="440" y="220" width="80" height="40" as="geometry" />
        </mxCell>
        <mxCell id="0HKYhWC0ovhim3nkVOuH-49" style="rounded=0;orthogonalLoop=1;jettySize=auto;html=1;exitX=1;exitY=1;exitDx=0;exitDy=0;entryX=0;entryY=0;entryDx=0;entryDy=0;endArrow=none;endFill=0;" edge="1" parent="1" source="0HKYhWC0ovhim3nkVOuH-48" target="0HKYhWC0ovhim3nkVOuH-2">
          <mxGeometry relative="1" as="geometry" />
        </mxCell>
        <mxCell id="0HKYhWC0ovhim3nkVOuH-48" value="&lt;u&gt;id&lt;/u&gt;" style="ellipse;whiteSpace=wrap;html=1;" vertex="1" parent="1">
          <mxGeometry x="260" y="270" width="60" height="30" as="geometry" />
        </mxCell>
      </root>
    </mxGraphModel>
  </diagram>
</mxfile>
